<svg xmlns="http://www.w3.org/2000/svg" viewBox="0 0 1024 1024" role="img" aria-label="AI Cloud Study Saver icon">
  <defs>
    <linearGradient id="bg" x1="120" y1="80" x2="900" y2="940" gradientUnits="userSpaceOnUse">
      <stop stop-color="#172033"/>
      <stop offset="0.52" stop-color="#2563eb"/>
      <stop offset="1" stop-color="#0f9f6e"/>
    </linearGradient>
  </defs>
  <rect width="1024" height="1024" rx="224" fill="url(#bg)"/>
  <path d="M265 285c0-35 28-63 63-63h368c35 0 63 28 63 63v454c0 35-28 63-63 63H328c-35 0-63-28-63-63V285Z" fill="#ffffff" opacity="0.96"/>
  <path d="M346 344h332M346 448h332M346 552h210" fill="none" stroke="#2563eb" stroke-width="54" stroke-linecap="round"/>
  <path d="M329 727c80-64 166-64 258 0 49 34 103 34 161 0" fill="none" stroke="#0f9f6e" stroke-width="48" stroke-linecap="round"/>
  <circle cx="700" cy="609" r="72" fill="#f59e0b"/>
</svg>
